<?xml version="1.0" encoding="utf-8"?>
<!-- Generator: Adobe Illustrator 21.0.2, SVG Export Plug-In . SVG Version: 6.00 Build 0)  -->
<svg version="1.1" id="Layer_1" xmlns="http://www.w3.org/2000/svg" xmlns:xlink="http://www.w3.org/1999/xlink" x="0px" y="0px"
	 viewBox="0 0 636.1 140.4" style="enable-background:new 0 0 636.1 140.4;" xml:space="preserve">
<style type="text/css">
	.st0{fill:#9A62F4;}
	.st1{fill:#9A55FF;}
	.st2{fill:#DA8CFF;}
</style>
<g>
	<g>
		<path class="st0" d="M182,49.8c0-3.6-0.6-6-1.8-7.3c-1.2-1.3-2.8-1.9-4.8-1.9c-2,0-3.6,0.6-4.8,1.8c-1.2,1.2-1.8,3.2-1.8,6.1v6.5
			h-11.6v-6c0-6.5,1.5-11.5,4.6-14.9c3.1-3.4,7.7-5.1,13.9-5.1c6.2,0,10.9,1.7,14.1,5.2c3.2,3.5,4.8,8.5,4.8,15v2.1
			c0,8.6-2.9,14.1-8.8,16.5c3.2,1.4,5.5,3.5,6.8,6.4c1.3,2.9,2,6.4,2,10.5v6.3c0,6.5-1.6,11.5-4.8,15c-3.2,3.5-7.9,5.2-14.1,5.2
			c-6.2,0-10.9-1.7-14.1-5.2c-3.2-3.5-4.8-8.5-4.8-15v-8.8h11.9v9.6c0,2.9,0.6,5,1.8,6.1c1.2,1.2,2.8,1.8,4.8,1.8
			c2,0,3.6-0.6,4.8-1.8c1.2-1.2,1.8-3.6,1.8-7.2v-6.3c0-3.7-0.7-6.4-1.9-7.9c-1.3-1.5-3.4-2.3-6.3-2.3h-3.1V62.7h3.8
			c2.4,0,4.2-0.6,5.6-1.8c1.3-1.2,2-3.4,2-6.7V49.8z"/>
		<path class="st0" d="M243.9,110.3h-12.7L229,95.8h-15.5l-2.2,14.6h-11.6l12.8-80.3h18.5L243.9,110.3z M215.2,84.9h12.2l-6.1-40.6
			L215.2,84.9z"/>
		<path class="st0" d="M262.4,110.3h-12.6V30.1h12.6v34.4h14.3V30.1h12.8v80.3h-12.8V75.9h-14.3V110.3z"/>
		<path class="st0" d="M298.9,110.3V30.1h33.3v11.5h-20.6v68.8H298.9z"/>
		<path class="st0" d="M353.3,63.9h17.3v11.5h-17.3v23.5h21.8v11.5h-34.4V30.1h34.4v11.5h-21.8V63.9z"/>
	</g>
	<g>
		<path class="st0" d="M422.9,31c6.3,0,11.1,1.7,14.2,5c3.1,3.4,4.6,8.3,4.6,14.8v10.4c0,6.5-1.5,11.4-4.6,14.8
			c-3.1,3.4-7.8,5-14.2,5h-6v30.2h-12.6V31H422.9z M416.9,42.4v27.2h6c2,0,3.5-0.5,4.6-1.6c1.1-1.1,1.6-3.1,1.6-6V50
			c0-2.9-0.5-4.9-1.6-6c-1.1-1.1-2.6-1.6-4.6-1.6H416.9z"/>
		<path class="st0" d="M488.4,111.3h-12.7l-2.2-14.6H458l-2.2,14.6h-11.6L457,31h18.5L488.4,111.3z M459.6,85.8h12.2l-6.1-40.6
			L459.6,85.8z"/>
		<path class="st0" d="M506.8,111.3h-12.6V31h12.6v34.4h14.3V31H534v80.3h-12.8V76.9h-14.3V111.3z"/>
		<path class="st0" d="M543.3,111.3V31h33.3v11.5h-20.6v68.8H543.3z"/>
		<path class="st0" d="M597.7,64.8H615v11.5h-17.3v23.5h21.8v11.5H585V31h34.4v11.5h-21.8V64.8z"/>
	</g>
</g>
<g>
	<polygon class="st1" points="33.7,64.9 46.7,128.4 142.2,12 	"/>
	<g>
		<polygon class="st2" points="142.2,12 36.8,80.2 8.2,64.1 		"/>
		<polygon class="st2" points="142.2,12 142,12.4 86.8,107.8 51.3,88.4 		"/>
	</g>
</g>
</svg>
